<svg width="37" height="37" viewBox="0 0 37 37" fill="none" xmlns="http://www.w3.org/2000/svg">
<path d="M1.3259 32.6428V4.35707C1.3259 3.67509 1.60528 3.02103 2.10259 2.5388C2.59989 2.05656 3.27439 1.78564 3.97768 1.78564H33.1473C33.8506 1.78564 34.5251 2.05656 35.0224 2.5388C35.5197 3.02103 35.7991 3.67509 35.7991 4.35707V32.6428C35.7991 33.3248 35.5197 33.9788 35.0224 34.4611C34.5251 34.9433 33.8506 35.2142 33.1473 35.2142H25.192V23.0256H27.0747C27.5037 23.0256 27.9152 22.8604 28.2185 22.5662C28.5219 22.2721 28.6923 21.8731 28.6923 21.4571V19.4771C28.6923 19.0611 28.5219 18.6621 28.2185 18.3679C27.9152 18.0738 27.5037 17.9085 27.0747 17.9085H25.298V15.4914C25.298 13.3314 26.3057 13.3314 27.3134 13.3314H28.6128C28.8262 13.3399 29.0389 13.3028 29.236 13.2229C29.433 13.1429 29.6095 13.0219 29.753 12.8685C29.9071 12.7262 30.0291 12.5545 30.1113 12.3642C30.1935 12.1739 30.234 11.9691 30.2304 11.7628V9.85993C30.2374 9.65054 30.2019 9.44185 30.1257 9.24579C30.0496 9.04973 29.9343 8.87014 29.7866 8.7173C29.6388 8.56446 29.4614 8.44136 29.2646 8.35504C29.0677 8.26871 28.8552 8.22086 28.6393 8.21422H25.5897C24.6999 8.18178 23.8135 8.33703 22.9916 8.66925C22.1697 9.00147 21.4319 9.50273 20.8293 10.1384C20.2267 10.7741 19.7736 11.5291 19.5013 12.3512C19.2289 13.1732 19.1439 14.0429 19.252 14.8999V17.9085H17.5548C17.3402 17.9051 17.127 17.9431 16.9277 18.0204C16.7283 18.0977 16.5469 18.2127 16.3938 18.3587C16.2408 18.5047 16.1193 18.6788 16.0363 18.8708C15.9534 19.0628 15.9107 19.2689 15.9107 19.4771V21.4571C15.9107 21.6652 15.9534 21.8713 16.0363 22.0633C16.1193 22.2553 16.2408 22.4294 16.3938 22.5754C16.5469 22.7214 16.7283 22.8364 16.9277 22.9137C17.127 22.991 17.3402 23.0291 17.5548 23.0256H19.252V35.2142H3.97768C3.27439 35.2142 2.59989 34.9433 2.10259 34.4611C1.60528 33.9788 1.3259 33.3248 1.3259 32.6428Z" stroke="white" stroke-width="2" stroke-linecap="round" stroke-linejoin="round"/>
</svg>
