<svg width="34" height="33" viewBox="0 0 34 33" fill="none" xmlns="http://www.w3.org/2000/svg">
<path d="M24.4219 1.5H8.95312C4.68155 1.5 1.21875 4.85786 1.21875 9V24C1.21875 28.1421 4.68155 31.5 8.95312 31.5H24.4219C28.6935 31.5 32.1562 28.1421 32.1562 24V9C32.1562 4.85786 28.6935 1.5 24.4219 1.5Z" stroke="white" stroke-width="2" stroke-linecap="round" stroke-linejoin="round"/>
<path d="M25.1953 8.25H25.2108M22.875 15.555C23.0659 16.8034 22.846 18.0783 22.2466 19.1985C21.6472 20.3187 20.6987 21.2271 19.5362 21.7945C18.3737 22.3619 17.0563 22.5594 15.7714 22.3589C14.4865 22.1584 13.2994 21.5701 12.3792 20.6777C11.4589 19.7854 10.8522 18.6343 10.6455 17.3883C10.4387 16.1423 10.6424 14.8648 11.2275 13.7376C11.8126 12.6103 12.7494 11.6906 13.9046 11.1094C15.0598 10.5281 16.3746 10.3149 17.662 10.5C18.9752 10.6888 20.1909 11.2822 21.1296 12.1925C22.0683 13.1027 22.6802 14.2816 22.875 15.555Z" stroke="white" stroke-width="2" stroke-linecap="round" stroke-linejoin="round"/>
</svg>
