<svg width="16" height="17" viewBox="0 0 16 17" fill="none" xmlns="http://www.w3.org/2000/svg">
<path d="M9.539 6.93207V6.93457C9.4895 6.90307 9.388 6.88757 9.2605 6.88757V10.0986C9.44 10.0986 9.552 10.0571 9.594 9.98657C9.6355 9.91907 9.6565 9.71857 9.6565 9.39807V7.48657C9.6565 7.26757 9.654 7.12707 9.6355 7.06707C9.62 7.00207 9.591 6.95757 9.5415 6.93157L9.539 6.93207ZM14.9425 0.539074H1.0805C0.801785 0.55511 0.538431 0.67203 0.339602 0.868006C0.140774 1.06398 0.0200614 1.32562 0 1.60407L0 15.4581C0.039 16.0416 0.474 16.4866 1.0365 16.5361C1.047 16.5386 1.0575 16.5386 1.068 16.5386H14.964C15.2472 16.5102 15.5098 16.3779 15.7012 16.1673C15.8926 15.9567 15.9992 15.6827 16.0005 15.3981V1.67907C15.9991 1.39109 15.8896 1.11412 15.6938 0.90294C15.498 0.69176 15.2301 0.561735 14.943 0.538574L14.9425 0.539074ZM3.1955 10.9556H1.9245V6.04657H3.1955V10.9556ZM7.5545 10.9556H6.4475V7.64057L5.9995 10.9531H5.208L4.742 7.71357L4.737 10.9531H3.6275V6.04657H5.2705C5.328 6.39307 5.3775 6.74457 5.424 7.09607L5.6035 8.34107L5.9005 6.04657H7.554L7.5545 10.9556ZM10.8725 9.50257C10.8725 9.93757 10.844 10.2316 10.802 10.3826C10.77 10.5187 10.6941 10.6404 10.586 10.7291C10.4769 10.8202 10.3459 10.8812 10.206 10.9061C10.0575 10.9346 9.826 10.9556 9.5265 10.9556L9.524 10.9531H7.9875V6.04657H8.938C9.5475 6.04657 9.904 6.07807 10.1175 6.13007C10.3335 6.19007 10.5005 6.28107 10.615 6.41157C10.7245 6.53157 10.7975 6.67957 10.8235 6.84107C10.8575 6.99757 10.873 7.31007 10.873 7.77607L10.8725 9.50257ZM14.1695 9.81757C14.1695 10.1171 14.138 10.3281 14.1095 10.4791C14.068 10.6276 13.9795 10.7471 13.8385 10.8566C13.6875 10.9686 13.518 11.0181 13.3175 11.0181C13.1715 11.0181 12.984 10.9766 12.8645 10.9271C12.7313 10.8563 12.6142 10.7587 12.5205 10.6406L12.445 10.9556H11.299V6.04657L11.286 6.04407H12.4865V7.64307C12.5855 7.52607 12.6975 7.43757 12.825 7.37757C12.9722 7.32141 13.1284 7.29228 13.286 7.29157C13.437 7.29157 13.5855 7.31507 13.726 7.36957C13.8405 7.41657 13.9395 7.49207 14.0175 7.58857C14.0775 7.67207 14.1165 7.76807 14.1375 7.87007C14.1555 7.96107 14.166 8.15657 14.166 8.44807V9.81807L14.1695 9.81757ZM12.719 8.00807C12.641 8.00807 12.5915 8.03657 12.5705 8.08857C12.5495 8.14307 12.5315 8.28107 12.5315 8.50507V9.80207C12.5315 10.0181 12.5495 10.1591 12.5705 10.2186C12.5839 10.2467 12.6055 10.2702 12.6324 10.286C12.6593 10.3018 12.6904 10.3091 12.7215 10.3071C12.7995 10.3071 12.901 10.2756 12.922 10.2131C12.94 10.1481 12.9505 9.99957 12.9505 9.76507L12.9715 9.76257V8.50207C12.9715 8.30157 12.961 8.16357 12.9325 8.10107C12.901 8.03357 12.8025 8.00707 12.7215 8.00707L12.719 8.00807Z" fill="#FFD600"/>
</svg>
