<svg width="20" height="20" viewBox="0 0 20 20" fill="none" xmlns="http://www.w3.org/2000/svg">
<path d="M8.26729 15.9014C9.87827 15.8993 11.4483 15.3934 12.7574 14.4546L17.5184 19.216C17.6253 19.3223 17.7523 19.4063 17.8919 19.4632C18.0316 19.5201 18.1811 19.5487 18.3319 19.5473C18.985 19.5473 19.4569 19.045 19.4569 18.4022C19.4569 18.1009 19.3566 17.8197 19.1354 17.599L14.4044 12.8577C15.3987 11.5519 15.9914 9.93487 15.9914 8.17687C15.9914 3.92801 12.5161 0.452728 8.26729 0.452728C4.00857 0.452728 0.543144 3.92801 0.543144 8.17687C0.543144 12.4257 4.00857 15.9014 8.26729 15.9014ZM8.26729 14.2339C4.94243 14.2339 2.21029 11.4919 2.21029 8.17687C2.21029 4.8623 4.94243 2.11987 8.26729 2.11987C11.5819 2.11987 14.3243 4.8623 14.3243 8.17687C14.3243 11.4919 11.5819 14.2339 8.26729 14.2339Z" fill="#EAEAEA"/>
</svg>
